<?xml version="1.0" standalone="no"?><!-- Generator: Gravit.io --><svg xmlns="http://www.w3.org/2000/svg" xmlns:xlink="http://www.w3.org/1999/xlink" style="isolation:isolate" viewBox="37 201 154.968 77.484" width="154.968" height="77.484"><g><g><path d=" M 41.843 210.685 L 187.126 210.685 C 189.799 210.685 191.968 208.516 191.968 205.843 C 191.968 203.169 189.799 201 187.126 201 L 41.843 201 C 39.169 201 37 203.17 37 205.843 C 37 208.516 39.17 210.685 41.843 210.685 Z " fill="rgb(0,0,0)"/><path d=" M 188.006 234.899 L 69.14 234.899 C 66.953 234.899 65.178 237.069 65.178 239.742 C 65.178 242.415 66.954 244.585 69.14 244.585 L 188.006 244.585 C 190.194 244.585 191.968 242.415 191.968 239.742 C 191.968 237.069 190.194 234.899 188.006 234.899 Z " fill="rgb(0,0,0)"/><path d=" M 187.486 268.799 L 97.839 268.799 C 95.365 268.799 93.357 270.968 93.357 273.641 C 93.357 276.315 95.365 278.484 97.839 278.484 L 187.486 278.484 C 189.961 278.484 191.968 276.314 191.968 273.641 C 191.969 270.968 189.961 268.799 187.486 268.799 Z " fill="rgb(0,0,0)"/></g></g></svg>