<?xml version="1.0" encoding="utf-8"?>
<!-- Generator: Adobe Illustrator 19.0.0, SVG Export Plug-In . SVG Version: 6.00 Build 0)  -->
<svg version="1.1" id="Layer_1" xmlns="http://www.w3.org/2000/svg" xmlns:xlink="http://www.w3.org/1999/xlink" x="0px" y="0px"
	 viewBox="0 0 180 30" style="enable-background:new 0 0 180 30;" xml:space="preserve">
<style type="text/css">
	.st0{fill:#273879;}
	.st1{fill:#28A8E0;}
	.st2{fill:#231F55;}
	.st3{fill:#1D76BB;}
</style>
<g id="XMLID_2_">
	<g id="XMLID_15_">
		<g id="XMLID_32_">
			<path id="XMLID_44_" class="st0" d="M41.5,25.6c-0.1-0.1-0.2-0.2-0.2-0.4l0-15c0-0.2,0.1-0.3,0.2-0.4c0.1-0.1,0.2-0.2,0.4-0.2
				l1.9,0c0.3,0,0.5,0.1,0.7,0.4l4.4,8.2l4.4-8.2c0.2-0.3,0.4-0.4,0.7-0.4l1.8,0c0.2,0,0.3,0.1,0.4,0.2c0.1,0.1,0.2,0.2,0.2,0.4
				l0,15c0,0.2-0.1,0.3-0.2,0.4c-0.1,0.1-0.2,0.1-0.4,0.1l-2,0c-0.2,0-0.3-0.1-0.4-0.2c-0.1-0.1-0.2-0.2-0.2-0.4l0-9.9l-3.2,6.1
				c-0.2,0.3-0.4,0.5-0.8,0.5h-1c-0.3,0-0.6-0.2-0.8-0.5l-3.2-6.1l0,9.9c0,0.2-0.1,0.3-0.1,0.4c-0.1,0.1-0.2,0.2-0.4,0.2l-2,0
				C41.7,25.7,41.6,25.7,41.5,25.6z"/>
			<path id="XMLID_41_" class="st0" d="M60.3,24.6c-1-0.9-1.5-2.2-1.6-3.8l0-1l0-1c0.1-1.6,0.6-2.9,1.6-3.8c1-0.9,2.4-1.4,4.2-1.4
				c1.8,0,3.1,0.5,4.1,1.4c1,0.9,1.5,2.2,1.6,3.8c0,0.2,0,0.5,0,1c0,0.5,0,0.8,0,1c-0.1,1.6-0.6,2.9-1.6,3.8c-1,0.9-2.4,1.4-4.2,1.4
				C62.7,25.9,61.3,25.5,60.3,24.6z M66.4,22.8c0.4-0.5,0.7-1.2,0.7-2.2c0-0.2,0-0.5,0-0.9c0-0.4,0-0.7,0-0.9c0-1-0.3-1.7-0.7-2.2
				c-0.4-0.5-1.1-0.8-1.9-0.8c-0.8,0-1.4,0.3-1.9,0.8c-0.4,0.5-0.7,1.3-0.7,2.2l0,0.9l0,0.9c0,1,0.3,1.7,0.7,2.2
				c0.4,0.5,1.1,0.8,1.9,0.8C65.3,23.6,65.9,23.3,66.4,22.8z"/>
			<path id="XMLID_38_" class="st0" d="M73.1,24.4c-0.8-1-1.3-2.3-1.4-4l0-0.8l0-0.8c0.1-1.6,0.5-2.9,1.3-3.9c0.8-1,2-1.5,3.6-1.5
				c1.5,0,2.6,0.5,3.5,1.5l0-5.1c0-0.2,0.1-0.3,0.2-0.4c0.1-0.1,0.2-0.2,0.4-0.2l2,0c0.2,0,0.3,0,0.4,0.1c0.1,0.1,0.2,0.2,0.2,0.4
				l0,15.2c0,0.2,0,0.3-0.1,0.4c-0.1,0.1-0.2,0.2-0.4,0.2h-1.9c-0.2,0-0.3-0.1-0.4-0.2c-0.1-0.1-0.2-0.2-0.2-0.4v-0.9
				c-0.8,1.1-2.1,1.6-3.7,1.6C75.1,25.9,74,25.4,73.1,24.4z M79.5,22.6c0.4-0.6,0.7-1.3,0.7-2.1c0-0.2,0-0.5,0-0.9
				c0-0.4,0-0.7,0-0.9c0-0.8-0.3-1.4-0.7-2C79,16.2,78.4,16,77.6,16c-1.6,0-2.5,1-2.6,3l0,0.7l0,0.7c0.1,2,1,3,2.6,3
				C78.4,23.4,79.1,23.2,79.5,22.6z"/>
			<path id="XMLID_35_" class="st0" d="M87.1,25.4c-0.7-0.3-1.2-0.7-1.5-1.3C85.2,23.6,85,23,85,22.4c0-1,0.4-1.9,1.3-2.5
				c0.8-0.6,2-1.1,3.5-1.3l3.2-0.5v-0.5c0-0.7-0.2-1.2-0.5-1.5c-0.3-0.3-0.9-0.5-1.6-0.5c-0.5,0-0.9,0.1-1.2,0.3
				c-0.3,0.2-0.6,0.4-0.7,0.6c-0.2,0.2-0.3,0.3-0.4,0.4c-0.1,0.2-0.2,0.3-0.3,0.3l-1.8,0c-0.1,0-0.3,0-0.4-0.1
				c-0.1-0.1-0.1-0.2-0.1-0.4c0-0.4,0.2-0.8,0.6-1.3c0.4-0.5,0.9-0.9,1.7-1.3c0.8-0.4,1.7-0.5,2.8-0.5c1.8,0,3.1,0.4,4,1.2
				c0.8,0.8,1.2,1.9,1.2,3.2l0,7.2c0,0.2,0,0.3-0.2,0.4c-0.1,0.1-0.2,0.2-0.4,0.2l-1.9,0c-0.2,0-0.3-0.1-0.4-0.2
				c-0.1-0.1-0.2-0.2-0.2-0.4v-0.9c-0.3,0.5-0.8,0.9-1.4,1.2c-0.6,0.3-1.4,0.5-2.3,0.5C88.5,25.9,87.8,25.8,87.1,25.4z M92.1,22.9
				c0.5-0.6,0.8-1.4,0.8-2.4V20l-2.3,0.4c-1.8,0.3-2.6,0.9-2.6,1.8c0,0.5,0.2,0.9,0.6,1.1c0.4,0.3,0.9,0.4,1.5,0.4
				C90.9,23.7,91.6,23.4,92.1,22.9z"/>
			<path id="XMLID_33_" class="st0" d="M98.6,25.5c-0.1-0.1-0.2-0.2-0.2-0.4l0-15.2c0-0.2,0.1-0.3,0.2-0.4c0.1-0.1,0.2-0.1,0.4-0.1
				l1.9,0c0.2,0,0.3,0,0.4,0.1c0.1,0.1,0.1,0.2,0.1,0.4l0,15.2c0,0.2-0.1,0.3-0.1,0.4c-0.1,0.1-0.2,0.2-0.4,0.2l-1.9,0
				C98.8,25.7,98.7,25.6,98.6,25.5z"/>
		</g>
		<g id="XMLID_16_">
			<path id="XMLID_29_" class="st1" d="M104.2,25.5c-0.1-0.1-0.2-0.2-0.2-0.4l0-14.9c0-0.2,0.1-0.3,0.2-0.4c0.1-0.1,0.2-0.2,0.4-0.2
				l6.3,0c2,0,3.6,0.5,4.8,1.4c1.1,0.9,1.7,2.2,1.7,3.9c0,1.1-0.2,2-0.7,2.7c-0.5,0.8-1.2,1.3-2.1,1.7l3.1,5.6
				c0,0.1,0.1,0.2,0.1,0.3c0,0.1,0,0.2-0.1,0.3c-0.1,0.1-0.2,0.2-0.3,0.2l-3.2,0c-0.4,0-0.8-0.2-0.9-0.6l-2.5-5h-2.2l0,5
				c0,0.2-0.1,0.3-0.2,0.4c-0.1,0.1-0.3,0.2-0.4,0.2l-3.2,0C104.4,25.7,104.3,25.6,104.2,25.5z M110.9,16.7c0.7,0,1.2-0.2,1.5-0.5
				c0.3-0.3,0.5-0.8,0.5-1.4c0-0.6-0.2-1.1-0.5-1.4c-0.3-0.4-0.8-0.5-1.5-0.5l-2.6,0l0,3.8L110.9,16.7z"/>
			<path id="XMLID_26_" class="st1" d="M120.5,25.4c-0.7-0.3-1.2-0.7-1.6-1.3c-0.4-0.6-0.6-1.2-0.6-1.8c0-1,0.4-1.9,1.3-2.5
				c0.9-0.7,2.1-1.1,3.6-1.3l2.9-0.4v-0.3c0-0.6-0.1-1-0.3-1.2c-0.2-0.3-0.6-0.4-1.2-0.4c-0.3,0-0.6,0.1-0.8,0.2
				c-0.2,0.1-0.4,0.3-0.7,0.5c-0.2,0.2-0.4,0.3-0.5,0.4c-0.1,0.1-0.1,0.2-0.2,0.2l-2.7,0c-0.2,0-0.3,0-0.4-0.2
				c-0.1-0.1-0.1-0.2-0.1-0.4c0-0.4,0.2-0.9,0.6-1.4c0.4-0.5,1-1,1.8-1.3c0.8-0.4,1.8-0.6,3-0.6c1.9,0,3.3,0.4,4.2,1.2
				c0.9,0.8,1.4,2,1.4,3.4l0,7c0,0.2-0.1,0.3-0.2,0.4c-0.1,0.1-0.2,0.2-0.4,0.2l-2.8,0c-0.2,0-0.3-0.1-0.4-0.2
				c-0.1-0.1-0.2-0.3-0.2-0.4v-0.8c-0.3,0.5-0.8,0.9-1.4,1.2c-0.6,0.3-1.3,0.4-2.1,0.5C122,25.9,121.2,25.7,120.5,25.4z M125.6,22.5
				c0.4-0.4,0.6-1.1,0.6-1.9v-0.3l-1.9,0.3c-1.3,0.2-1.9,0.7-1.9,1.4c0,0.4,0.2,0.6,0.5,0.9c0.3,0.2,0.7,0.3,1.1,0.3
				C124.6,23.2,125.1,22.9,125.6,22.5z"/>
			<path id="XMLID_24_" class="st1" d="M132.4,25.5c-0.1-0.1-0.2-0.2-0.2-0.4l0-15.2c0-0.2,0.1-0.3,0.2-0.4c0.1-0.1,0.3-0.2,0.4-0.2
				l2.8,0c0.2,0,0.3,0.1,0.4,0.2c0.1,0.1,0.2,0.2,0.2,0.4l0,7.7l3.1-3.5c0,0,0.1-0.1,0.2-0.2c0.1-0.1,0.2-0.1,0.3-0.2
				c0.1,0,0.2-0.1,0.3-0.1l3.2,0c0.1,0,0.3,0,0.4,0.1c0.1,0.1,0.1,0.2,0.2,0.4c0,0.1-0.1,0.3-0.2,0.4l-4,4.5l4.6,5.7
				c0.1,0.1,0.2,0.3,0.2,0.3c0,0.2-0.1,0.3-0.2,0.4c-0.1,0.1-0.2,0.1-0.4,0.1l-3.3,0c-0.2,0-0.3,0-0.4-0.1c-0.1-0.1-0.2-0.2-0.4-0.3
				l-3.5-4.3l0,4.1c0,0.2-0.1,0.3-0.2,0.4c-0.1,0.1-0.2,0.2-0.4,0.2l-2.8,0C132.7,25.6,132.5,25.6,132.4,25.5z"/>
			<path id="XMLID_22_" class="st1" d="M147.2,29.9c-0.1-0.1-0.1-0.2-0.1-0.3c0-0.1,0-0.2,0-0.3l1.8-4.3l-4.4-10.4
				c0-0.1-0.1-0.2-0.1-0.3c0-0.2,0.1-0.3,0.2-0.4c0.1-0.1,0.2-0.1,0.4-0.1l2.7,0c0.3,0,0.5,0.2,0.7,0.5l2.6,6.5l2.6-6.5
				c0.2-0.3,0.4-0.5,0.7-0.5l2.7,0c0.1,0,0.3,0.1,0.4,0.1c0.1,0.1,0.1,0.2,0.1,0.3c0,0.1,0,0.2,0,0.3l-6.5,15.1
				c-0.2,0.3-0.4,0.5-0.7,0.5l-2.7,0C147.4,30,147.3,30,147.2,29.9z"/>
			<path id="XMLID_19_" class="st1" d="M159.4,25.4c-0.7-0.3-1.2-0.7-1.6-1.3c-0.4-0.6-0.6-1.2-0.6-1.8c0-1,0.4-1.9,1.3-2.5
				c0.9-0.7,2.1-1.1,3.6-1.4l2.9-0.4v-0.3c0-0.6-0.1-1-0.3-1.2c-0.2-0.3-0.6-0.4-1.2-0.4c-0.3,0-0.6,0.1-0.8,0.2
				c-0.2,0.1-0.4,0.3-0.7,0.5c-0.2,0.2-0.4,0.3-0.5,0.4c-0.1,0.1-0.1,0.2-0.2,0.2l-2.7,0c-0.2,0-0.3,0-0.4-0.2
				c-0.1-0.1-0.1-0.2-0.1-0.4c0-0.4,0.2-0.9,0.6-1.4c0.4-0.5,1-1,1.8-1.3c0.8-0.4,1.8-0.6,3-0.6c1.9,0,3.3,0.4,4.2,1.2
				c0.9,0.8,1.4,2,1.4,3.4l0,7c0,0.2-0.1,0.3-0.2,0.4c-0.1,0.1-0.2,0.2-0.4,0.2l-2.8,0c-0.2,0-0.3-0.1-0.4-0.2
				c-0.1-0.1-0.2-0.2-0.2-0.4v-0.8c-0.3,0.5-0.8,0.9-1.4,1.2c-0.6,0.3-1.3,0.5-2.1,0.5C160.8,25.8,160,25.7,159.4,25.4z M164.4,22.5
				c0.4-0.4,0.6-1.1,0.6-1.9v-0.3l-1.9,0.3c-1.3,0.2-1.9,0.7-1.9,1.4c0,0.4,0.2,0.6,0.4,0.9c0.3,0.2,0.7,0.3,1.1,0.3
				C163.4,23.1,164,22.9,164.4,22.5z"/>
			<path id="XMLID_17_" class="st1" d="M172.4,21l0-4.3h-1.8c-0.2,0-0.3-0.1-0.4-0.2c-0.1-0.1-0.2-0.2-0.2-0.4v-2
				c0-0.2,0.1-0.3,0.2-0.4c0.1-0.1,0.2-0.2,0.4-0.2h1.8l0-3.8c0-0.2,0.1-0.3,0.2-0.4c0.1-0.1,0.2-0.2,0.4-0.2l2.8,0
				c0.2,0,0.3,0.1,0.4,0.2c0.1,0.1,0.2,0.2,0.2,0.4l0,3.8l2.9,0c0.2,0,0.3,0.1,0.4,0.2c0.1,0.1,0.2,0.2,0.2,0.4l0,2
				c0,0.2-0.1,0.3-0.2,0.4c-0.1,0.1-0.3,0.2-0.4,0.2h-2.9l0,3.9c0,0.5,0.1,0.9,0.3,1.2c0.2,0.3,0.5,0.4,1,0.4l1.8,0
				c0.2,0,0.3,0.1,0.4,0.2c0.1,0.1,0.2,0.3,0.2,0.4l0,2.1c0,0.2-0.1,0.3-0.2,0.4c-0.1,0.1-0.2,0.2-0.4,0.2l-2.2,0
				C174,25.6,172.4,24.1,172.4,21z"/>
		</g>
	</g>
	<g id="XMLID_3_">
		<path id="XMLID_14_" class="st1" d="M22,24.9c-1.5,0-2.7-1.2-2.7-2.7v-6.7c0-4.2,3.4-7.5,7.5-7.5c4.2,0,7.5,3.4,7.5,7.5
			c0,1.5-1.2,2.7-2.7,2.7c-1.5,0-2.7-1.2-2.7-2.7c0-1.2-0.9-2.1-2.1-2.1c-1.2,0-2.1,1-2.1,2.1v6.7C24.8,23.7,23.5,24.9,22,24.9"/>
		<path id="XMLID_11_" class="st2" d="M19.3,15.2l0,0.1v0l0,0v0l0,0v0l0,0v0l0,0v0v0v0l0,0v0v0c0,0.1,0,0.3,0,0.4v-0.4
			C19.4,15.4,19.4,15.3,19.3,15.2 M23.5,9.4c-0.7,0-1.2,0.1-1.4,0.3c1.6,1.3,2.6,3.3,2.7,5.5c0.2-1,1-1.8,2.1-1.8h0h0
			c1.2,0,2.1,1,2.1,2.1C29,10.6,25.6,9.4,23.5,9.4"/>
		<path id="XMLID_10_" class="st3" d="M22.1,24.9c1.5,0,2.7-1.2,2.7-2.7v-6.7c0-4.2-3.4-7.5-7.5-7.5c-4.2,0-7.5,3.4-7.5,7.5
			c0,1.5,1.2,2.7,2.7,2.7c1.5,0,2.7-1.2,2.7-2.7c0-1.2,1-2.1,2.1-2.1c1.2,0,2.1,1,2.1,2.1v6.7C19.4,23.7,20.6,24.9,22.1,24.9"/>
		<path id="XMLID_9_" class="st2" d="M13.9,9.4c-0.7,0-1.3,0.1-1.5,0.3c1.6,1.4,2.7,3.5,2.7,5.8v0.4c0-0.1,0-0.3,0-0.4
			c0-1.2,1-2.1,2.1-2.1c1.2,0,2.1,1,2.1,2.1C19.4,10.6,15.9,9.4,13.9,9.4"/>
		<path id="XMLID_8_" class="st0" d="M12.4,27.7c-1.5,0-2.7-1.2-2.7-2.7v-9.5c0-1.2-1-2.1-2.1-2.1c-1.2,0-2.1,1-2.1,2.1v11.4
			c0,1.5-1.2,2.7-2.7,2.7S0,28.4,0,26.9V15.5C0,11.3,3.4,8,7.5,8c4.2,0,7.5,3.4,7.5,7.5V25C15.1,26.5,13.9,27.7,12.4,27.7"/>
		<path id="XMLID_7_" class="st2" d="M4.2,9.4c-0.7,0-1.3,0.1-1.5,0.3c-1.6,1.3-2.6,3.3-2.7,5.6v0l0,0v0l0,0v0l0,0v0l0,0v0v0v0l0,0
			v0v0v11.4c0,1.5,1.2,2.7,2.7,2.7s2.7-1.2,2.7-2.7V15.5c0-1.2,0.9-2.1,2.1-2.1h0c1.2,0,2.1,1,2.1,2.1C9.7,10.6,6.2,9.4,4.2,9.4"/>
		<circle id="XMLID_6_" class="st0" cx="7.6" cy="3.6" r="3.5"/>
		<circle id="XMLID_5_" class="st3" cx="17.2" cy="3.6" r="3.5"/>
		<circle id="XMLID_4_" class="st1" cx="26.9" cy="3.6" r="3.5"/>
	</g>
</g>
</svg>
