<?xml version="1.0"?>
<svg xmlns="http://www.w3.org/2000/svg" id="Layer_1" data-name="Layer 1" viewBox="0 0 512 512" width="512" height="512"><title>Money Investment</title><path d="M403,148.793v-8.23a28.857,28.857,0,0,0-6-57.083,16.857,16.857,0,1,1,16.857-16.857,6,6,0,0,0,12,0A28.9,28.9,0,0,0,403,38.4v-7.19a6,6,0,1,0-12,0V38.4a28.857,28.857,0,0,0,6,57.083,16.853,16.853,0,0,1,.164,33.706c-.055,0-.108-.008-.164-.008s-.109.007-.164.008a16.872,16.872,0,0,1-16.693-16.849,6,6,0,1,0-12,0A28.9,28.9,0,0,0,391,140.563v8.23a6,6,0,0,0,12,0Z"/><path d="M483,90a86,86,0,1,0-92,85.767v72.459a86.028,86.028,0,0,0-74-42.252,6,6,0,0,0-6,6,86.1,86.1,0,0,0,80,85.767v60.485a86.028,86.028,0,0,0-74-42.252,6,6,0,0,0-6,6,86.1,86.1,0,0,0,80,85.767v89.915a6,6,0,0,0,12,0V407.741a86.1,86.1,0,0,0,80-85.767,6,6,0,0,0-6-6,86.028,86.028,0,0,0-74,42.252V297.741a86.1,86.1,0,0,0,80-85.767,6,6,0,0,0-6-6,86.028,86.028,0,0,0-74,42.252V175.767A86.1,86.1,0,0,0,483,90ZM323,90a74,74,0,1,1,74,74A74.083,74.083,0,0,1,323,90Zm.263,128.236a74.126,74.126,0,0,1,67.474,67.475A74.126,74.126,0,0,1,323.263,218.236Zm0,110a74.126,74.126,0,0,1,67.474,67.475A74.126,74.126,0,0,1,323.263,328.236Zm147.474,0a74.126,74.126,0,0,1-67.474,67.475A74.126,74.126,0,0,1,470.737,328.236Zm0-110a74.126,74.126,0,0,1-67.474,67.475A74.126,74.126,0,0,1,470.737,218.236Z"/><path d="M293.372,343.072c-16.075-6.43-37.321-9.971-59.822-9.971A200.025,200.025,0,0,0,203.9,335.26V215.374c0-11.322-9.811-21.481-27.628-28.607-16.075-6.431-37.32-9.972-59.821-9.972s-43.746,3.541-59.822,9.972C38.812,193.893,29,204.052,29,215.374v195.48c0,22,37.6,38.58,87.45,38.58a198.394,198.394,0,0,0,29.651-2.167V469.42c0,11.322,9.811,21.481,27.628,28.608C189.8,504.459,211.049,508,233.55,508s43.746-3.541,59.822-9.972C311.188,490.9,321,480.742,321,469.42V371.681C321,360.358,311.188,350.2,293.372,343.072ZM61.085,197.908c14.691-5.877,34.354-9.113,55.365-9.113,43.183,0,75.449,14.032,75.449,26.579,0,5.907-7.507,12.437-20.084,17.467-14.691,5.877-34.354,9.113-55.365,9.113-43.183,0-75.45-14.033-75.45-26.58C41,209.468,48.508,202.938,61.085,197.908ZM41,235.507a68.381,68.381,0,0,0,15.628,8.475c16.075,6.431,37.321,9.972,59.822,9.972s43.746-3.541,59.821-9.972a68.36,68.36,0,0,0,15.628-8.475v12.447c0,5.907-7.507,12.437-20.084,17.467-14.691,5.877-34.354,9.113-55.365,9.113C73.267,274.534,41,260.5,41,247.954Zm0,32.58a68.343,68.343,0,0,0,15.628,8.475c16.075,6.431,37.321,9.972,59.822,9.972s43.746-3.541,59.821-9.972a68.322,68.322,0,0,0,15.628-8.475v12.447c0,5.906-7.507,12.437-20.084,17.467-14.692,5.877-34.354,9.113-55.365,9.113-43.183,0-75.45-14.033-75.45-26.58Zm0,32.58a68.459,68.459,0,0,0,15.628,8.476c16.076,6.43,37.321,9.971,59.822,9.971s43.746-3.541,59.821-9.971a68.438,68.438,0,0,0,15.628-8.476v12.447c0,5.907-7.507,12.437-20.084,17.467-14.692,5.877-34.354,9.113-55.365,9.113-43.183,0-75.45-14.033-75.45-26.58Zm0,32.58a68.42,68.42,0,0,0,15.628,8.476c16.076,6.43,37.321,9.971,59.822,9.971s43.746-3.541,59.821-9.971a68.4,68.4,0,0,0,15.628-8.476v4.274a122.959,122.959,0,0,0-18.17,5.551c-16.906,6.762-26.6,16.256-27.545,26.881a184.892,184.892,0,0,1-29.734,2.321c-43.183,0-75.45-14.033-75.45-26.58Zm0,32.523c14.928,11.259,42.508,18.5,75.45,18.5a198.433,198.433,0,0,0,29.651-2.167v20.438a184.941,184.941,0,0,1-29.651,2.309c-43.183,0-75.45-14.033-75.45-26.58Zm0,45.084v-12.5c14.928,11.259,42.508,18.5,75.45,18.5a198.394,198.394,0,0,0,29.651-2.167v20.438a185.047,185.047,0,0,1-29.651,2.309C73.267,437.434,41,423.4,41,410.854Zm247.915,76.033C274.223,492.764,254.561,496,233.55,496c-43.183,0-75.449-14.033-75.449-26.58V456.973a68.4,68.4,0,0,0,15.628,8.475c16.075,6.431,37.32,9.972,59.821,9.972s43.747-3.541,59.822-9.972A68.42,68.42,0,0,0,309,456.973V469.42C309,475.326,301.492,481.856,288.915,486.887Zm0-32.58c-14.691,5.877-34.354,9.113-55.365,9.113-43.183,0-75.449-14.033-75.449-26.58V424.393a68.4,68.4,0,0,0,15.628,8.475c16.075,6.431,37.32,9.972,59.821,9.972s43.747-3.541,59.822-9.972A68.42,68.42,0,0,0,309,424.393V436.84C309,442.747,301.492,449.276,288.915,454.307Zm0-32.58c-14.691,5.877-34.354,9.113-55.365,9.113-43.183,0-75.449-14.033-75.449-26.58V391.813a68.4,68.4,0,0,0,15.628,8.475c16.075,6.431,37.32,9.972,59.821,9.972s43.746-3.541,59.822-9.972A68.42,68.42,0,0,0,309,391.813V404.26C309,410.167,301.492,416.7,288.915,421.727Zm0-32.581c-14.691,5.877-34.354,9.114-55.365,9.114-43.183,0-75.449-14.032-75.449-26.579,0-5.908,7.507-12.437,20.084-17.467,14.691-5.877,34.354-9.113,55.365-9.113,43.183,0,75.45,14.033,75.45,26.58C309,377.587,301.492,384.116,288.915,389.146Z"/></svg>
