<?xml version="1.0" encoding="iso-8859-1"?>
<!-- Generator: Adobe Illustrator 19.0.0, SVG Export Plug-In . SVG Version: 6.00 Build 0)  -->
<svg version="1.1" id="Layer_1" xmlns="http://www.w3.org/2000/svg" xmlns:xlink="http://www.w3.org/1999/xlink" x="0px" y="0px"
	 viewBox="0 0 512 512" style="enable-background:new 0 0 512 512;" xml:space="preserve">
<g>
	<g>
		<path d="M306.961,0c-73.119,0-132.605,59.486-132.605,132.605s59.487,132.605,132.605,132.605
			c73.119,0,132.605-59.486,132.605-132.605S380.08,0,306.961,0z M306.961,234.795c-56.348,0-102.19-45.842-102.19-102.19
			c0-56.348,45.843-102.19,102.19-102.19c56.348,0,102.19,45.842,102.19,102.19C409.15,188.954,363.309,234.795,306.961,234.795z"/>
	</g>
</g>
<g>
	<g>
		<path d="M322.169,118.673V88.185c1.973,0.651,3.688,1.447,5.091,2.382c2.54,1.694,5.135,4.348,5.135,11.19h30.416
			c0-23.954-15.217-40.257-40.641-44.78V44.774h-30.416v12.203c-25.424,4.524-40.641,20.827-40.641,44.78
			c0,23.953,15.217,40.257,40.641,44.78v30.488c-1.974-0.65-3.689-1.446-5.091-2.38c-2.54-1.694-5.135-4.348-5.135-11.191h-30.416
			c0,23.954,15.217,40.257,40.641,44.78v12.203h30.416v-12.203c25.424-4.524,40.641-20.827,40.641-44.78
			C362.811,139.5,347.594,123.196,322.169,118.673z M291.754,115.329c-1.974-0.652-3.689-1.447-5.091-2.383
			c-2.54-1.694-5.135-4.348-5.135-11.19c0-6.842,2.596-9.496,5.135-11.19c1.402-0.935,3.117-1.731,5.091-2.382V115.329z
			 M327.259,174.645c-1.402,0.935-3.117,1.731-5.091,2.382v-27.144c1.973,0.651,3.688,1.446,5.091,2.382
			c2.54,1.693,5.135,4.348,5.135,11.19C332.394,170.297,329.798,172.95,327.259,174.645z"/>
	</g>
</g>
<g>
	<g>
		<path d="M494.793,332.65l-121.142,29.378V318.42l-140.024-35.063L89.709,305.681H0.28V512h105.421v-42.606l73.929-8.292
			l143.244,40.212L511.72,397.229L494.793,332.65z M75.285,472.804v8.78H30.696V336.097h44.589V472.804z M319.101,468.662
			l-136.964-38.449l-76.437,8.574V333.981l126.508-19.625l111.027,27.802V362l-85.178-20.774l-7.207,29.55l107.582,26.238
			l114.508-27.769l3.35,12.782L319.101,468.662z"/>
	</g>
</g>
<g>
</g>
<g>
</g>
<g>
</g>
<g>
</g>
<g>
</g>
<g>
</g>
<g>
</g>
<g>
</g>
<g>
</g>
<g>
</g>
<g>
</g>
<g>
</g>
<g>
</g>
<g>
</g>
<g>
</g>
</svg>
