<?xml version="1.0" encoding="iso-8859-1"?>
<!-- Generator: Adobe Illustrator 19.1.0, SVG Export Plug-In . SVG Version: 6.00 Build 0)  -->
<svg version="1.1" id="Capa_1" xmlns="http://www.w3.org/2000/svg" xmlns:xlink="http://www.w3.org/1999/xlink" x="0px" y="0px"
	 viewBox="0 0 511.647 511.647" style="enable-background:new 0 0 511.647 511.647;" xml:space="preserve">
<g>
	<g>
		<rect x="428.677" y="222.739" width="13.828" height="21.586"/>
		<rect x="428.677" y="190.368" width="13.828" height="21.586"/>
		<polygon points="428.676,179.567 442.505,179.567 442.505,165.739 435.59,158.825 421.762,158.825 421.762,172.653 
			428.676,172.653 		"/>
		<rect x="206.926" y="158.825" width="28.645" height="13.828"/>
		<rect x="163.962" y="158.825" width="28.645" height="13.828"/>
		<rect x="120.998" y="158.825" width="28.645" height="13.828"/>
		<rect x="378.798" y="158.825" width="28.645" height="13.828"/>
		<rect x="35.062" y="158.825" width="28.652" height="13.828"/>
		<rect x="335.827" y="158.825" width="28.652" height="13.828"/>
		<rect x="78.033" y="158.825" width="28.645" height="13.828"/>
		<rect x="292.862" y="158.825" width="28.645" height="13.828"/>
		<rect x="249.891" y="158.825" width="28.652" height="13.828"/>
		<rect x="78.026" y="449.219" width="28.652" height="13.828"/>
		<rect x="35.062" y="449.219" width="28.645" height="13.828"/>
		<rect x="335.827" y="449.219" width="28.645" height="13.828"/>
		<rect x="378.791" y="449.219" width="28.652" height="13.828"/>
		<rect x="120.998" y="449.219" width="28.645" height="13.828"/>
		<rect x="163.955" y="449.219" width="28.652" height="13.828"/>
		<rect x="249.891" y="449.219" width="28.645" height="13.828"/>
		<rect x="206.926" y="449.219" width="28.645" height="13.828"/>
		<rect x="292.862" y="449.219" width="28.645" height="13.828"/>
		<polygon points="428.676,449.219 421.762,449.219 421.762,463.047 435.59,463.047 442.505,456.133 442.505,442.305 
			428.676,442.305 		"/>
		<rect x="428.677" y="377.112" width="13.828" height="21.731"/>
		<rect x="428.677" y="409.704" width="13.828" height="21.738"/>
		<path d="M366.449,310.935c0,15.253,12.404,27.657,27.657,27.657c15.252,0,27.657-12.404,27.657-27.657
			c0-15.253-12.404-27.657-27.657-27.657S366.449,295.682,366.449,310.935z M394.106,297.107c7.626,0,13.828,6.202,13.828,13.828
			c0,7.626-6.202,13.828-13.828,13.828s-13.828-6.202-13.828-13.828C380.278,303.31,386.48,297.107,394.106,297.107z"/>
		<path d="M504.733,262.539h-34.716l0.145-96.798c0-19.063-15.509-34.571-34.571-34.571h-2.932V64.952l-8.207-6.79l-49.408,9.403
			L359.1,25.036l-8.788-4.093L40.289,131.169H6.914L0,138.083v345.707l6.914,6.914H435.59c19.063,0,34.571-15.508,34.572-34.583
			l-0.145-96.791l34.716,0.007l6.914-6.914v-82.97L504.733,262.539z M348.542,36.251l12.722,33.934l-232.771,44.299L348.542,36.251z
			 M418.837,73.305v57.864H114.802L418.837,73.305z M435.59,476.875H13.828v-13.829h6.914v-13.828h-6.914V172.653h6.914v-13.828
			h-6.914v-13.83H435.59c11.436,0,20.742,9.307,20.742,20.729l-0.145,96.812h-13.683v-7.418h-13.828v7.418h-48.399
			c-19.063,0-34.571,15.509-34.571,34.571v27.657c0,19.063,15.509,34.571,34.571,34.571l48.399-0.004v6.91h13.828v-6.912
			l13.683-0.001l0.145,96.805C456.332,467.569,447.026,476.875,435.59,476.875z M497.818,345.506l-34.73-0.007l-82.811,0.007
			c-11.436,0-20.742-9.306-20.742-20.742v-27.657c0-11.436,9.306-20.742,20.742-20.742h117.541V345.506z"/>
	</g>
</g>
<g>
</g>
<g>
</g>
<g>
</g>
<g>
</g>
<g>
</g>
<g>
</g>
<g>
</g>
<g>
</g>
<g>
</g>
<g>
</g>
<g>
</g>
<g>
</g>
<g>
</g>
<g>
</g>
<g>
</g>
</svg>
